# xmcd
#
# Track frame offsets: 
#        150
#        26370
#        46585
#        64090
#        84475
#        108945
#        129967
#        148300
#        167622
#
# Disc length: 2469 seconds
#
# Revision: 0
# Processed by: cddbd v1.4PL0 Copyright (c) Steve Scherf et al.
# Submitted via: ExactAudioCopy v0.95a3
#
DISCID=6b09a309
DTITLE=Terry Tate - Babies Having Babies
DYEAR=1996
DGENRE=Modern Soul
TTITLE0=Babies Having Babies
TTITLE1=One Night
TTITLE2=My Eyes Cry
TTITLE3=It Never Gets Better Than This
TTITLE4=In Less Than A Minute
TTITLE5=Forgive And Forget
TTITLE6=Don't Be Breaking
TTITLE7=Count On My Love
TTITLE8=Inside My Heart
EXTD=
EXTT0=
EXTT1=
EXTT2=
EXTT3=
EXTT4=
EXTT5=
EXTT6=
EXTT7=
EXTT8=
PLAYORDER=
